<mxfile host="app.diagrams.net" modified="2023-04-21T06:09:37.121Z" agent="Mozilla/5.0 (Windows NT 10.0; Win64; x64) AppleWebKit/537.36 (KHTML, like Gecko) Chrome/112.0.0.0 Safari/537.36" etag="Z_Sj3qICLbES4WQtWoKB" version="21.2.1" type="device">
  <diagram name="Page-1" id="58cdce13-f638-feb5-8d6f-7d28b1aa9fa0">
    <mxGraphModel dx="926" dy="1277" grid="1" gridSize="10" guides="1" tooltips="1" connect="1" arrows="1" fold="1" page="1" pageScale="1" pageWidth="1100" pageHeight="850" background="none" math="0" shadow="0">
      <root>
        <mxCell id="0" />
        <mxCell id="1" parent="0" />
        <mxCell id="rN2tJ9Tac5BX4QBZjOxD-1" value="&lt;b&gt;&lt;font style=&quot;font-size: 18px;&quot;&gt;CEO&lt;/font&gt;&lt;/b&gt;" style="rounded=1;whiteSpace=wrap;html=1;" vertex="1" parent="1">
          <mxGeometry x="319" y="-526" width="160" height="60" as="geometry" />
        </mxCell>
        <mxCell id="rN2tJ9Tac5BX4QBZjOxD-2" value="&lt;b&gt;&lt;font style=&quot;font-size: 14px;&quot;&gt;EMPLOYEE_DETAILS&lt;/font&gt;&lt;/b&gt;" style="rounded=1;whiteSpace=wrap;html=1;" vertex="1" parent="1">
          <mxGeometry x="760" y="-526" width="160" height="60" as="geometry" />
        </mxCell>
        <mxCell id="rN2tJ9Tac5BX4QBZjOxD-3" value="&lt;b&gt;&lt;font style=&quot;font-size: 15px;&quot;&gt;DATABASE&lt;/font&gt;&lt;/b&gt;" style="rounded=1;whiteSpace=wrap;html=1;" vertex="1" parent="1">
          <mxGeometry x="760" y="-287" width="160" height="60" as="geometry" />
        </mxCell>
        <mxCell id="rN2tJ9Tac5BX4QBZjOxD-4" value="" style="endArrow=classic;html=1;rounded=0;exitX=1;exitY=0.5;exitDx=0;exitDy=0;entryX=0;entryY=0.5;entryDx=0;entryDy=0;" edge="1" parent="1" source="rN2tJ9Tac5BX4QBZjOxD-1" target="rN2tJ9Tac5BX4QBZjOxD-2">
          <mxGeometry width="50" height="50" relative="1" as="geometry">
            <mxPoint x="550" y="-510" as="sourcePoint" />
            <mxPoint x="600" y="-560" as="targetPoint" />
          </mxGeometry>
        </mxCell>
        <mxCell id="rN2tJ9Tac5BX4QBZjOxD-5" value="" style="endArrow=classic;html=1;rounded=0;entryX=0.5;entryY=0;entryDx=0;entryDy=0;exitX=0.5;exitY=1;exitDx=0;exitDy=0;" edge="1" parent="1" source="rN2tJ9Tac5BX4QBZjOxD-2" target="rN2tJ9Tac5BX4QBZjOxD-3">
          <mxGeometry width="50" height="50" relative="1" as="geometry">
            <mxPoint x="550" y="-510" as="sourcePoint" />
            <mxPoint x="600" y="-560" as="targetPoint" />
          </mxGeometry>
        </mxCell>
        <mxCell id="rN2tJ9Tac5BX4QBZjOxD-7" value="" style="endArrow=none;html=1;rounded=0;entryX=0;entryY=0.5;entryDx=0;entryDy=0;" edge="1" parent="1">
          <mxGeometry width="50" height="50" relative="1" as="geometry">
            <mxPoint x="400" y="-261" as="sourcePoint" />
            <mxPoint x="760" y="-261" as="targetPoint" />
          </mxGeometry>
        </mxCell>
        <mxCell id="rN2tJ9Tac5BX4QBZjOxD-8" value="" style="endArrow=classic;html=1;rounded=0;entryX=0.5;entryY=1;entryDx=0;entryDy=0;" edge="1" parent="1" target="rN2tJ9Tac5BX4QBZjOxD-1">
          <mxGeometry width="50" height="50" relative="1" as="geometry">
            <mxPoint x="400" y="-260" as="sourcePoint" />
            <mxPoint x="400" y="-620" as="targetPoint" />
          </mxGeometry>
        </mxCell>
        <mxCell id="rN2tJ9Tac5BX4QBZjOxD-9" value="&lt;font style=&quot;font-size: 16px;&quot;&gt;2. Searching for the list&lt;br&gt;6. Checking for avail&lt;br&gt;3. Check for avail&lt;br&gt;7. Return if avail&lt;/font&gt;" style="shape=note;whiteSpace=wrap;html=1;backgroundOutline=1;darkOpacity=0.05;" vertex="1" parent="1">
          <mxGeometry x="920" y="-425" width="250" height="100" as="geometry" />
        </mxCell>
        <mxCell id="rN2tJ9Tac5BX4QBZjOxD-10" value="&lt;font style=&quot;font-size: 15px;&quot;&gt;5. Check for particular emp details&lt;/font&gt;" style="shape=note;whiteSpace=wrap;html=1;backgroundOutline=1;darkOpacity=0.05;" vertex="1" parent="1">
          <mxGeometry x="520" y="-626" width="180" height="100" as="geometry" />
        </mxCell>
        <mxCell id="rN2tJ9Tac5BX4QBZjOxD-12" value="&lt;font style=&quot;font-size: 15px;&quot;&gt;8. Set the details&lt;br&gt;4. Provide the details&lt;/font&gt;" style="shape=note;whiteSpace=wrap;html=1;backgroundOutline=1;darkOpacity=0.05;" vertex="1" parent="1">
          <mxGeometry x="149" y="-420" width="170" height="90" as="geometry" />
        </mxCell>
        <mxCell id="rN2tJ9Tac5BX4QBZjOxD-13" value="&lt;b style=&quot;font-size: 15px;&quot;&gt;LAB 5&lt;br&gt;PRATEEK KUMAR&lt;br&gt;CSE VI C&lt;br&gt;2100290109013&lt;br&gt;CLASS ROLL No 68&lt;/b&gt;" style="rounded=0;whiteSpace=wrap;html=1;fillColor=#ffe6cc;strokeColor=#d79b00;" vertex="1" parent="1">
          <mxGeometry x="390" y="-830" width="410" height="100" as="geometry" />
        </mxCell>
      </root>
    </mxGraphModel>
  </diagram>
</mxfile>
